<svg xmlns="http://www.w3.org/2000/svg" width="16" height="16" viewBox="0 0 16 16" fill="none">
  <path d="M2 3c0-.6.4-1 1-1h10c.6 0 1 .4 1 1v10c0 .6-.4 1-1 1H3c-.6 0-1-.4-1-1V3z" fill="currentColor" fill-opacity="0.15"/>
  <path d="M2 3c0-.6.4-1 1-1h10c.6 0 1 .4 1 1v10c0 .6-.4 1-1 1H3c-.6 0-1-.4-1-1V3z" stroke="currentColor" stroke-width="1.2" stroke-linecap="round" stroke-linejoin="round"/>
  <path d="M5 6h6M5 8h4M5 10h5" stroke="currentColor" stroke-width="1.2" stroke-linecap="round"/>
</svg>
